<svg width="24" height="24" viewBox="0 0 24 24" fill="none" xmlns="http://www.w3.org/2000/svg">
<path fill-rule="evenodd" clip-rule="evenodd" d="M15.5528 20C15.3656 20.0001 15.1803 19.9657 15.0074 19.8986C14.8345 19.8316 14.6775 19.7333 14.5454 19.6094L7.4177 12.9514C7.28528 12.8278 7.18023 12.681 7.10855 12.5194C7.03689 12.3578 7 12.1846 7 12.0098C7 11.8349 7.03689 11.6617 7.10855 11.5001C7.18023 11.3384 7.28528 11.1917 7.4177 11.068L14.5454 4.41003C14.6768 4.28207 14.8341 4.1799 15.0083 4.10951C15.1825 4.03911 15.3699 4.00191 15.5597 4.00007C15.7494 3.99825 15.9377 4.03183 16.1134 4.09886C16.289 4.16588 16.4487 4.26499 16.5828 4.39039C16.7169 4.51578 16.8229 4.66494 16.8945 4.8291C16.9661 4.99326 17.002 5.16913 16.9999 5.34638C16.9978 5.52364 16.9578 5.69872 16.8823 5.86136C16.8068 6.02399 16.6973 6.17091 16.5602 6.2935L10.4415 12.0104L16.5602 17.7259C16.7599 17.9121 16.8959 18.1494 16.9511 18.4078C17.0064 18.6662 16.9783 18.9341 16.8703 19.1776C16.7625 19.421 16.5797 19.6291 16.3452 19.7756C16.1107 19.922 15.8349 20.0001 15.5528 20Z" fill="white"/>
</svg>
