<svg width="24" height="25" viewBox="0 0 24 25" fill="none" xmlns="http://www.w3.org/2000/svg">
<path d="M10.4995 14.0949L20.9995 3.5949M10.6271 14.423L13.2552 21.181C13.4867 21.7763 13.6025 22.074 13.7693 22.1609C13.9139 22.2362 14.0862 22.2363 14.2308 22.1612C14.3977 22.0745 14.5139 21.7769 14.7461 21.1818L21.3364 4.2941C21.5461 3.75692 21.6509 3.48833 21.5935 3.3167C21.5437 3.16765 21.4268 3.05068 21.2777 3.00089C21.1061 2.94355 20.8375 3.04837 20.3003 3.258L3.41258 9.84834C2.8175 10.0806 2.51997 10.1967 2.43326 10.3636C2.35809 10.5083 2.35819 10.6805 2.43353 10.8251C2.52043 10.9919 2.81811 11.1077 3.41345 11.3392L10.1715 13.9673C10.2923 14.0143 10.3527 14.0378 10.4036 14.0741C10.4487 14.1063 10.4881 14.1457 10.5203 14.1908C10.5566 14.2417 10.5801 14.3021 10.6271 14.423Z" stroke="white" stroke-width="2" stroke-linecap="round" stroke-linejoin="round"/>
</svg>
