<svg width="33" height="33" viewBox="0 0 33 33" fill="none" xmlns="http://www.w3.org/2000/svg">
<path fill-rule="evenodd" clip-rule="evenodd" d="M16.1077 29.0197C23.1769 29.0197 28.9077 23.289 28.9077 16.2197C28.9077 9.15048 23.1769 3.41973 16.1077 3.41973C9.03842 3.41973 3.30767 9.15048 3.30767 16.2197C3.30767 23.289 9.03842 29.0197 16.1077 29.0197ZM16.1077 32.2197C24.9442 32.2197 32.1077 25.0563 32.1077 16.2197C32.1077 7.38317 24.9442 0.219727 16.1077 0.219727C7.27111 0.219727 0.107666 7.38317 0.107666 16.2197C0.107666 25.0563 7.27111 32.2197 16.1077 32.2197Z" fill="#F5F5F5"/>
<path d="M16.1077 0.219727C18.2088 0.219727 20.2894 0.633579 22.2306 1.43765C24.1718 2.24173 25.9356 3.42028 27.4214 4.90602C28.9071 6.39176 30.0857 8.15558 30.8897 10.0968C31.6938 12.038 32.1077 14.1186 32.1077 16.2197L28.9077 16.2197C28.9077 14.5388 28.5766 12.8743 27.9333 11.3214C27.2901 9.76841 26.3472 8.35735 25.1586 7.16876C23.97 5.98017 22.559 5.03733 21.006 4.39407C19.453 3.75081 17.7886 3.41973 16.1077 3.41973L16.1077 0.219727Z" fill="#FF52FF"/>
</svg>
